<svg width="15" height="15" viewBox="0 0 15 15" fill="none" xmlns="http://www.w3.org/2000/svg">
<g clip-path="url(#clip0_1_49)">
<path d="M5.85938 5.99996C5.81317 5.99996 5.76741 5.99085 5.72473 5.97316C5.68205 5.95546 5.64327 5.92952 5.61062 5.89683C5.57797 5.86413 5.55208 5.82532 5.53444 5.78261C5.5168 5.7399 5.50775 5.69414 5.50781 5.64793L5.50828 5.61887L5.51203 5.55887C5.53607 5.2797 5.62086 5.00916 5.76047 4.76621C6.02906 4.30543 6.55734 3.88965 7.49953 3.88965C8.15578 3.88965 8.67609 4.08934 9.01828 4.47559C9.35906 4.85434 9.48703 5.36152 9.48703 5.88184C9.48703 6.76777 8.94797 7.2084 8.52141 7.51777C8.47203 7.5534 8.42516 7.58652 8.38078 7.61715C8.22328 7.7273 8.10094 7.81402 8.00203 7.91246C7.89141 8.02309 7.84875 8.11449 7.84875 8.22793V8.93105C7.84416 9.02116 7.80514 9.10606 7.73976 9.16823C7.67438 9.2304 7.58763 9.2651 7.49741 9.26516C7.40719 9.26522 7.32039 9.23064 7.25493 9.16855C7.18947 9.10647 7.15034 9.02162 7.14563 8.93152V8.2284C7.14563 7.87309 7.30781 7.61434 7.50469 7.41746C7.65188 7.27027 7.84078 7.13855 8.00625 7.02418H8.00719C8.045 6.99793 8.08094 6.97246 8.115 6.94777C8.50688 6.66793 8.79 6.40871 8.79 5.8884C8.79 5.47309 8.68594 5.15715 8.49938 4.9509C8.31891 4.75027 8.01656 4.5984 7.50094 4.5984C6.8025 4.5984 6.51188 4.88434 6.37125 5.12809C6.27932 5.28821 6.22558 5.46739 6.21422 5.65168V5.65637C6.2136 5.7492 6.17629 5.83802 6.11042 5.90345C6.04456 5.96887 5.95549 6.00559 5.86266 6.00559L5.85938 5.99996ZM7.96875 10.7812C7.96875 10.9055 7.91936 11.0248 7.83146 11.1127C7.74355 11.2006 7.62432 11.25 7.5 11.25C7.37568 11.25 7.25645 11.2006 7.16854 11.1127C7.08064 11.0248 7.03125 10.9055 7.03125 10.7812C7.03125 10.6569 7.08064 10.5377 7.16854 10.4498C7.25645 10.3618 7.37568 10.3125 7.5 10.3125C7.62432 10.3125 7.74355 10.3618 7.83146 10.4498C7.91936 10.5377 7.96875 10.6569 7.96875 10.7812Z" fill="#FEC32B"/>
<path fill-rule="evenodd" clip-rule="evenodd" d="M15 7.5C15 11.6438 11.6438 15 7.5 15C3.35625 15 0 11.6438 0 7.5C0 3.35625 3.35625 0 7.5 0C11.6438 0 15 3.35625 15 7.5ZM14.5312 7.5C14.5312 11.3812 11.3812 14.5312 7.5 14.5312C3.61875 14.5312 0.46875 11.3812 0.46875 7.5C0.46875 3.61875 3.61875 0.46875 7.5 0.46875C11.3812 0.46875 14.5312 3.61875 14.5312 7.5Z" fill="#FEC32B"/>
</g>
<defs>
<clipPath id="clip0_1_49">
<rect width="15" height="15" fill="white"/>
</clipPath>
</defs>
</svg>
