<svg width="18" height="18" viewBox="0 0 18 18" fill="none" xmlns="http://www.w3.org/2000/svg">
<path fill-rule="evenodd" clip-rule="evenodd" d="M9 18C10.1819 18 11.3522 17.7672 12.4442 17.3149C13.5361 16.8626 14.5282 16.1997 15.364 15.364C16.1997 14.5282 16.8626 13.5361 17.3149 12.4442C17.7672 11.3522 18 10.1819 18 9C18 7.8181 17.7672 6.64778 17.3149 5.55585C16.8626 4.46392 16.1997 3.47177 15.364 2.63604C14.5282 1.80031 13.5361 1.13738 12.4442 0.685084C11.3522 0.232792 10.1819 -1.76116e-08 9 0C6.61305 3.55683e-08 4.32387 0.948211 2.63604 2.63604C0.948212 4.32387 0 6.61305 0 9C0 11.3869 0.948212 13.6761 2.63604 15.364C4.32387 17.0518 6.61305 18 9 18ZM8.768 12.64L13.128 7.40804C13.4814 6.98386 13.4241 6.35345 13 5.99997C12.5758 5.64651 11.9455 5.70379 11.592 6.1279L8.63319 9.67773C8.25667 10.1295 7.57351 10.1604 7.15777 9.74442L6.41392 9.00024C6.02352 8.60967 5.3904 8.6096 4.99992 9.00008C4.6095 9.3905 4.6095 10.0235 4.99992 10.4139L7.293 12.707C7.70865 13.1227 8.39163 13.0915 8.768 12.64Z" fill="#1EA698"/>
</svg>
