<svg width="11" height="14" viewBox="0 0 11 14" fill="none" xmlns="http://www.w3.org/2000/svg">
<path fill-rule="evenodd" clip-rule="evenodd" d="M7.19231 0.935791H4.90431C3.86749 0.935791 3.04615 0.935791 2.40364 1.0221C1.74251 1.11123 1.20718 1.29851 0.784667 1.72046C0.362718 2.14297 0.175436 2.6783 0.0863078 3.33943C1.09275e-07 3.98251 4.27144e-08 4.80328 4.27144e-08 5.8401V9.2563C-0.000101194 9.76031 0.179757 10.2478 0.507183 10.631C0.83461 11.0141 1.28809 11.2678 1.78595 11.3463C1.86323 11.7773 2.01272 12.1451 2.31169 12.4446C2.65128 12.7842 3.07887 12.9297 3.58656 12.9986C4.07564 13.064 4.69785 13.064 5.46897 13.064H7.22333C7.99446 13.064 8.61667 13.064 9.10574 12.9986C9.61344 12.9297 10.041 12.7842 10.3806 12.4446C10.7202 12.105 10.8657 11.6774 10.9346 11.1697C11 10.6807 11 10.0585 11 9.28733V6.40477C11 5.63364 11 5.01143 10.9346 4.52236C10.8657 4.01466 10.7202 3.58707 10.3806 3.24748C10.0811 2.94851 9.71328 2.79902 9.28231 2.72174C9.20382 2.22388 8.95014 1.7704 8.56697 1.44297C8.1838 1.11555 7.69632 0.93569 7.19231 0.935791ZM8.39385 2.63994C8.30807 2.38948 8.14612 2.17211 7.93067 2.01826C7.71522 1.86441 7.45705 1.78178 7.19231 1.78194H4.9359C3.86015 1.78194 3.09636 1.78307 2.5159 1.86092C1.94897 1.93707 1.6218 2.08036 1.38318 2.31897C1.14456 2.55759 1.00128 2.88477 0.925128 3.45169C0.847282 4.03215 0.846154 4.79595 0.846154 5.87169V9.2563C0.845993 9.52105 0.92862 9.77921 1.08247 9.99467C1.23632 10.2101 1.45369 10.3721 1.70415 10.4578C1.69231 10.1137 1.69231 9.72451 1.69231 9.28733V6.40477C1.69231 5.63364 1.69231 5.01143 1.75831 4.52236C1.826 4.01466 1.97267 3.58707 2.31169 3.24748C2.65128 2.90789 3.07887 2.76236 3.58656 2.6941C4.07564 2.6281 4.69785 2.6281 5.46897 2.6281H7.22333C7.66051 2.6281 8.04974 2.6281 8.39385 2.63994ZM2.90964 3.84656C3.0659 3.6903 3.28477 3.58877 3.69938 3.53292C4.12472 3.47594 4.68995 3.47482 5.49944 3.47482H7.19174C8.00123 3.47482 8.5659 3.47594 8.99236 3.53292C9.40641 3.58877 9.62528 3.69087 9.78154 3.84656C9.9378 4.00282 10.0393 4.22169 10.0952 4.6363C10.1522 5.06164 10.1533 5.62687 10.1533 6.43636V9.25687C10.1533 10.0664 10.1522 10.631 10.0952 11.0575C10.0393 11.4715 9.93723 11.6904 9.78154 11.8467C9.62528 12.0029 9.40641 12.1045 8.9918 12.1603C8.5659 12.2173 8.00123 12.2184 7.19174 12.2184H5.49944C4.68995 12.2184 4.12472 12.2173 3.69882 12.1603C3.28477 12.1045 3.0659 12.0024 2.90964 11.8467C2.75338 11.6904 2.65185 11.4715 2.596 11.0569C2.53903 10.631 2.5379 10.0664 2.5379 9.25687V6.43636C2.5379 5.62687 2.53903 5.06164 2.596 4.63574C2.65185 4.22169 2.75395 4.00282 2.90964 3.84656Z" fill="#535353"/>
</svg>
