<svg width="17" height="16" viewBox="0 0 17 16" fill="none" xmlns="http://www.w3.org/2000/svg">
<path d="M5.93912 5.30273L7.88796 1.37802C7.94469 1.26444 8.03194 1.16891 8.13993 1.10214C8.24791 1.03537 8.37236 1 8.49932 1C8.62628 1 8.75073 1.03537 8.85872 1.10214C8.9667 1.16891 9.05395 1.26444 9.11068 1.37802L11.0595 5.30273L15.4163 5.93584C15.542 5.95327 15.6602 6.00567 15.7575 6.08708C15.8548 6.16848 15.9273 6.2756 15.9666 6.39622C16.006 6.51683 16.0106 6.64608 15.98 6.7692C15.9494 6.89233 15.8849 7.00437 15.7936 7.09255L12.6416 10.1456L13.3857 14.4589C13.481 15.0125 12.8959 15.434 12.3955 15.173L8.49932 13.1356L4.60238 15.173C4.10279 15.4348 3.51768 15.0125 3.61295 14.4581L4.35708 10.1448L1.20502 7.0918C1.11424 7.00356 1.05004 6.89163 1.01971 6.76873C0.989377 6.64582 0.994134 6.51687 1.03344 6.39653C1.07274 6.2762 1.14502 6.1693 1.24205 6.08799C1.33908 6.00669 1.45698 5.95423 1.58234 5.93659L5.93912 5.30273Z" stroke="#FFCE4E" stroke-linecap="round" stroke-linejoin="round"/>
</svg>
