<svg width="17" height="16" viewBox="0 0 17 16" fill="none" xmlns="http://www.w3.org/2000/svg">
<path d="M5.93912 5.17675L7.88796 1.25205C7.94469 1.13847 8.03194 1.04293 8.13993 0.976163C8.24791 0.909392 8.37236 0.874023 8.49932 0.874023C8.62629 0.874023 8.75074 0.909392 8.85872 0.976163C8.9667 1.04293 9.05395 1.13847 9.11068 1.25205L11.0595 5.17675L15.4163 5.80986C15.542 5.82729 15.6602 5.87969 15.7575 5.9611C15.8548 6.0425 15.9273 6.14963 15.9666 6.27024C16.006 6.39086 16.0106 6.5201 15.98 6.64323C15.9494 6.76635 15.8849 6.8784 15.7936 6.96657L12.6416 10.0196L13.3857 14.3329C13.481 14.8865 12.8959 15.3081 12.3955 15.047L8.49932 13.0097L4.60238 15.047C4.10279 15.3088 3.51768 14.8865 3.61295 14.3321L4.35708 10.0189L1.20502 6.96582C1.11424 6.87759 1.05004 6.76565 1.01971 6.64275C0.989377 6.51984 0.994134 6.39089 1.03344 6.27056C1.07274 6.15022 1.14502 6.04332 1.24205 5.96202C1.33908 5.88071 1.45698 5.82826 1.58234 5.81061L5.93912 5.17675Z" fill="#FFED7B" stroke="#FFCE4E" stroke-linecap="round" stroke-linejoin="round"/>
</svg>
