<svg
  width="15"
  height="12"
  viewBox="0 0 15 12"
  fill="none"
  xmlns="http://www.w3.org/2000/svg"
>
  <path
    fill-rule="evenodd"
    clip-rule="evenodd"
    d="M0.862161 0.862161C-8.76942e-08 1.72359 0 3.11099 0 5.88506C0 8.65913 -8.76942e-08 10.0465 0.862161 10.908C1.72432 11.7694 3.11099 11.7701 5.88506 11.7701H8.82759C11.6017 11.7701 12.9891 11.7701 13.8505 10.908C14.7119 10.0458 14.7126 8.65913 14.7126 5.88506C14.7126 3.11099 14.7126 1.72359 13.8505 0.862161C12.9883 0.000735579 11.6017 0 8.82759 0H5.88506C3.11099 0 1.72359 -8.76942e-08 0.862161 0.862161ZM12.1938 2.58943C12.2874 2.70182 12.3326 2.84679 12.3194 2.99246C12.3061 3.13813 12.2356 3.27258 12.1232 3.36625L10.5078 4.71246C9.85526 5.25683 9.32708 5.69674 8.85995 5.99687C8.37444 6.30952 7.90143 6.50667 7.35632 6.50667C6.81122 6.50667 6.33821 6.30878 5.85195 5.99687C5.38556 5.69674 4.85738 5.25609 4.20487 4.71319L2.58943 3.36699C2.47695 3.27334 2.40628 3.13885 2.39297 2.99309C2.37966 2.84734 2.42479 2.70227 2.51844 2.58979C2.61209 2.47732 2.74658 2.40665 2.89233 2.39334C3.03808 2.38002 3.18316 2.42516 3.29563 2.5188L4.8846 3.84221C5.57094 4.41379 6.0469 4.80956 6.45002 5.06851C6.83917 5.31862 7.10326 5.40322 7.35706 5.40322C7.61085 5.40322 7.87494 5.31936 8.26409 5.06851C8.66648 4.80956 9.14317 4.41379 9.82952 3.84221L11.4177 2.51807C11.5302 2.42455 11.6753 2.37953 11.8209 2.39291C11.9666 2.40629 12.1003 2.47697 12.1938 2.58943Z"
    fill="#F14A76"
  />
</svg>
