<svg width="17" height="15" viewBox="0 0 17 15" fill="none" xmlns="http://www.w3.org/2000/svg">
<path fill-rule="evenodd" clip-rule="evenodd" d="M0 3.01367C0 2.45009 0.223883 1.90958 0.622398 1.51107C1.02091 1.11256 1.56142 0.888672 2.125 0.888672H14.875C15.1541 0.888672 15.4304 0.943637 15.6882 1.05043C15.946 1.15722 16.1803 1.31375 16.3776 1.51107C16.5749 1.70839 16.7315 1.94265 16.8382 2.20047C16.945 2.45829 17 2.73461 17 3.01367V11.9859C17 12.265 16.945 12.5413 16.8382 12.7991C16.7315 13.0569 16.5749 13.2912 16.3776 13.4885C16.1803 13.6858 15.946 13.8423 15.6882 13.9491C15.4304 14.0559 15.1541 14.1109 14.875 14.1109H2.125C1.56142 14.1109 1.02091 13.887 0.622398 13.4885C0.223883 13.09 0 12.5495 0 11.9859V3.01367ZM1.41667 8.50089V11.9859C1.41667 12.3769 1.734 12.6942 2.125 12.6942H14.875C15.0629 12.6942 15.243 12.6196 15.3759 12.4868C15.5087 12.3539 15.5833 12.1738 15.5833 11.9859V9.44534L13.4867 7.34962C13.3539 7.21697 13.1738 7.14246 12.9861 7.14246C12.7984 7.14246 12.6184 7.21697 12.4856 7.34962L10.6817 9.15256L11.1256 9.59645C11.1951 9.6613 11.251 9.7395 11.2897 9.82638C11.3284 9.91327 11.3492 10.0071 11.3509 10.1022C11.3526 10.1973 11.3351 10.2918 11.2994 10.38C11.2638 10.4682 11.2108 10.5483 11.1435 10.6155C11.0763 10.6828 10.9962 10.7358 10.908 10.7715C10.8198 10.8071 10.7253 10.8246 10.6302 10.8229C10.5351 10.8212 10.4413 10.8004 10.3544 10.7617C10.2675 10.723 10.1893 10.6672 10.1244 10.5976L5.22278 5.69684C5.08997 5.56419 4.90993 5.48968 4.72222 5.48968C4.53451 5.48968 4.35448 5.56419 4.22167 5.69684L1.41667 8.50089ZM10.3889 4.66645C10.3889 4.91693 10.2894 5.15715 10.1123 5.33427C9.93515 5.51139 9.69493 5.61089 9.44444 5.61089C9.19396 5.61089 8.95374 5.51139 8.77662 5.33427C8.5995 5.15715 8.5 4.91693 8.5 4.66645C8.5 4.41597 8.5995 4.17574 8.77662 3.99863C8.95374 3.82151 9.19396 3.722 9.44444 3.722C9.69493 3.722 9.93515 3.82151 10.1123 3.99863C10.2894 4.17574 10.3889 4.41597 10.3889 4.66645Z" fill="#7389A0"/>
</svg>
