<svg width="21" height="21" viewBox="0 0 21 21" fill="none" xmlns="http://www.w3.org/2000/svg">
<path d="M4.97751 16.1482H6.1273L14.0145 8.26106L12.8647 7.11126L4.97751 14.9984V16.1482ZM4.17064 17.762C3.94203 17.762 3.75053 17.6845 3.59615 17.5296C3.44177 17.3747 3.36431 17.1832 3.36377 16.9551V14.9984C3.36377 14.7833 3.40411 14.5781 3.4848 14.3828C3.56549 14.1875 3.67979 14.0162 3.82772 13.8688L14.0145 3.70223C14.1758 3.55431 14.3542 3.44 14.5494 3.35931C14.7447 3.27862 14.9496 3.23828 15.1643 3.23828C15.3789 3.23828 15.5873 3.27862 15.7896 3.35931C15.9918 3.44 16.1667 3.56103 16.3141 3.7224L17.4235 4.85202C17.5849 4.99995 17.7024 5.17477 17.7761 5.37649C17.8498 5.57821 17.8869 5.77993 17.8875 5.98164C17.8875 6.19681 17.8503 6.40202 17.7761 6.59729C17.7019 6.79255 17.5843 6.9706 17.4235 7.13144L7.25692 17.298C7.109 17.4459 6.9374 17.5603 6.74214 17.6409C6.54688 17.7216 6.34193 17.762 6.1273 17.762H4.17064ZM13.4295 7.69625L12.8647 7.11126L14.0145 8.26106L13.4295 7.69625Z" fill="#535353" fill-opacity="0.7"/>
</svg>
