<svg width="20" height="20" viewBox="0 0 20 20" fill="none" xmlns="http://www.w3.org/2000/svg">
<path d="M12.9325 14.5107L7.06746 11.8428M13.0279 5.70141L6.97211 9.00465M4.17676 13.7061C4.59393 13.7061 5.00703 13.6239 5.39245 13.4642C5.77787 13.3046 6.12807 13.0706 6.42306 12.7756C6.71805 12.4806 6.95205 12.1304 7.1117 11.745C7.27134 11.3596 7.35351 10.9465 7.35351 10.5293C7.35351 10.1121 7.27134 9.69903 7.1117 9.31361C6.95205 8.92818 6.71805 8.57798 6.42306 8.28299C6.12807 7.988 5.77787 7.754 5.39245 7.59436C5.00703 7.43471 4.59393 7.35254 4.17676 7.35254C3.33423 7.35254 2.52621 7.68723 1.93045 8.28299C1.33469 8.87875 1 9.68677 1 10.5293C1 11.3718 1.33469 12.1798 1.93045 12.7756C2.52621 13.3714 3.33423 13.7061 4.17676 13.7061ZM15.8232 7.35351C16.2404 7.35351 16.6535 7.27134 17.0389 7.1117C17.4244 6.95205 17.7746 6.71805 18.0695 6.42306C18.3645 6.12807 18.5985 5.77787 18.7582 5.39245C18.9178 5.00703 19 4.59393 19 4.17676C19 3.75958 18.9178 3.34649 18.7582 2.96106C18.5985 2.57564 18.3645 2.22544 18.0695 1.93045C17.7746 1.63546 17.4244 1.40146 17.0389 1.24182C16.6535 1.08217 16.2404 1 15.8232 1C14.9807 1 14.1727 1.33469 13.5769 1.93045C12.9812 2.52621 12.6465 3.33423 12.6465 4.17676C12.6465 5.01928 12.9812 5.82731 13.5769 6.42306C14.1727 7.01882 14.9807 7.35351 15.8232 7.35351ZM15.8232 19C16.6658 19 17.4738 18.6653 18.0695 18.0695C18.6653 17.4738 19 16.6658 19 15.8232C19 14.9807 18.6653 14.1727 18.0695 13.5769C17.4738 12.9812 16.6658 12.6465 15.8232 12.6465C14.9807 12.6465 14.1727 12.9812 13.5769 13.5769C12.9812 14.1727 12.6465 14.9807 12.6465 15.8232C12.6465 16.6658 12.9812 17.4738 13.5769 18.0695C14.1727 18.6653 14.9807 19 15.8232 19Z" stroke="#393939" stroke-linecap="round" stroke-linejoin="round"/>
</svg>
