<svg width="20" height="21" viewBox="0 0 20 21" fill="none" xmlns="http://www.w3.org/2000/svg">
<path d="M10 0.548828C4.42857 0.548828 0 4.9774 0 10.5488C0 16.1203 4.42857 20.5488 10 20.5488C15.5714 20.5488 20 16.1203 20 10.5488C20 4.9774 15.5714 0.548828 10 0.548828ZM10 19.1203C5.28571 19.1203 1.42857 15.2631 1.42857 10.5488C1.42857 5.83454 5.28571 1.9774 10 1.9774C14.7143 1.9774 18.5714 5.83454 18.5714 10.5488C18.5714 15.2631 14.7143 19.1203 10 19.1203Z" fill="#209B98"/>
<path d="M13.8571 15.5488L10 11.6917L6.14286 15.5488L5 14.406L8.85714 10.5488L5 6.69169L6.14286 5.54883L10 9.40597L13.8571 5.54883L15 6.69169L11.1429 10.5488L15 14.406L13.8571 15.5488Z" fill="#209B98"/>
</svg>
